<mxfile host="app.diagrams.net" modified="2025-03-27T10:49:00.614Z" agent="Mozilla/5.0 (Macintosh; Intel Mac OS X 10_15_7) AppleWebKit/537.36 (KHTML, like Gecko) Chrome/133.0.0.0 Safari/537.36" version="24.0.8" etag="exxfMjeHrVK_Kru-7vMw" type="github">
  <diagram name="Page-1" id="79WTcAhN0aSboALR3R56">
    <mxGraphModel>
      <root>
        <mxCell id="0" />
        <mxCell id="1" parent="0" />
      </root>
    </mxGraphModel>
  </diagram>
</mxfile>
